<?xml version="1.0" encoding="UTF-8"?>
<svg id="Layer_2" data-name="Layer 2" xmlns="http://www.w3.org/2000/svg" viewBox="0 0 703.57 322.81">
  <defs>
    <style>
      .cls-1 {
        fill: #fff;
      }
    </style>
  </defs>
  <g id="Layer_1-2" data-name="Layer 1">
    <g>
      <g>
        <g>
          <path class="cls-1" d="M237.85,177.26c-.47-1.79-.2-3.48-.14-5.44l10.59-2.21c3.21-4.14,2.89-26.01,2.71-31.94l-.99-33.81c-.17-5.71-.28-11.05.01-16.73.29-5.59,1.53-13.58-6.17-14.71-3.05-.45-6.53-.41-6.46-3.21.03-1.38.47-2.65,1.15-3.92l11.53-.11,23.02-.71c8.22-.25,16.01-.02,24.12,1.23s14.96,3.96,20.84,9.12c9.57,8.4,11.76,19.95,4.19,30.68-2.87,4.06-6.24,7.11-10.86,8.96-1.8.72-3.55,1.89-4.88,3.34,8.2,1.54,15.16,5.51,19.7,12.28,5.99,8.93,6.27,20.21,1.16,29.7-5.71,10.62-15.49,14.69-26.73,17.51h-62.8ZM299.79,80.22c-3.24-3.27-7.2-5.56-11.62-7h-15.73s0,41.77,0,41.77l13.77.02c2.7-1.15,5.43-1.93,7.85-3.52,9.6-6.31,12.63-21.99,5.72-31.27ZM306.83,158.44c5.23-11.25,2.2-27.03-9.45-32.63-2.82-.66-5.47-2.29-8.38-2.31l-16.57-.11.12,42.17c0,2.1,2.76,3.46,4.64,3.82,6.54,1.26,13.34.78,19.7-1.36,4.52-1.52,7.88-5.16,9.94-9.59Z"/>
          <path class="cls-1" d="M451.4,155.25c-13.18,22.58-38.24,29.36-62.79,23.74-15.35-3.52-27.99-13.35-35.28-27.35-16.15-30.98-5.33-73.97,29.43-86.01,10.62-3.68,21.84-4.38,32.91-2.42,14.62,2.59,26.99,10.99,34.83,23.55,12.68,20.3,12.94,47.85.9,68.48ZM401.31,172.23c9.6.49,18.18-2.92,24.49-9.93,4.19-4.66,7.21-9.94,9.24-16.07,5.33-16.12,5.03-33.76-.92-49.69-5.08-13.58-15.38-24.59-30.65-25.14-16.25-.59-26.44,10.35-31.51,24.65-7.17,20.21-5.35,50.93,9.63,67.33,5.19,5.68,11.85,8.45,19.73,8.85Z"/>
        </g>
        <g>
          <path class="cls-1" d="M480.47,168c2.03-7.81,1.74-29.95,1.49-38.86l-.61-21.81c-.26-9.44-.22-18.55,0-27.96.07-2.82-1.19-5.66-3.56-6.94-2.22-1.19-4.62-1.25-7-2.11-.11-1.59.03-3.16.25-4.81,4.13-.96,8.28-.85,12.57-.87,5.97-.03,11.7.02,17.66.92l56.29,72.65c.55-2.75.2-5.48.3-8.32l.78-23.71c.27-8.2.36-21.7-1.26-29.41-1.22-5.8-6.56-4.85-10.86-6.37-1.14-2.23.79-5.32,3.5-5.6,6.82-.7,13.55-.68,20.44-.41,3.44.14,10.66-.39,10.88,3.47.09,1.5-.77,2.59-2.34,2.99l-4.92,1.25c-2.89.73-4.59,3.01-4.59,6.13l.04,91.65c0,1.73,1.66,6.13-1.7,7.34-2.23.28-5.82.92-7.97-.73l-67.13-87.47-.05,76.51c0,2.76,2.36,4.42,4.57,5.11l5.9,1.19c1.11.22,1.37,1.52,1.49,2.23.12.77-.06,2.88-1.26,2.97-10.16.77-20.34.93-30.42.19-1.56-.11-2.63-1.81-2.65-2.79-.08-5.16,8.74-.89,10.19-6.44Z"/>
          <path class="cls-1" d="M664.43,178.61c-10.49,3.04-21,3.33-31.47,1.11-26.98-5.74-42.25-30.31-42.71-56.81-.48-27.53,14.85-53.12,42.76-59.15,23.85-5.15,48.47,2.53,61.42,24.17,18.99,31.73,8.04,79.66-30.01,90.68ZM667.96,163.79c4.59-4.46,7.47-9.6,9.5-15.61,4.97-14.7,5.82-30.45,2.42-45.59-3.99-17.75-15.23-31.95-34.84-31.42-8.83.24-16.65,3.55-22.1,10.65-3.69,4.81-6.29,10.06-7.97,16.11-4.37,15.75-4.18,32.62.41,48.31,2.1,7.17,5.66,13.26,11.05,18.13,11.95,10.79,29.84,10.78,41.52-.58Z"/>
        </g>
      </g>
      <g>
        <path class="cls-1" d="M290.13,273.58c-2.38.48-10.22,5.3-11.78.47-1.14-3.53-.98-13.57-.93-17.76l.14-10.33.35-13.78c.15-6.15.38-12.11-.03-18.24s-8.28-.98-7.52-7.57c.11-.98.72-2.21,2-2.67,5.04-1.81,9.9-3.26,15.18-4.61,1.13-.29,4,.08,4.02,1.68l.22,29.24,6.81-2.7c3.91-1.55,8.11-1.28,12.27-.54,7.51,1.33,13.46,6.32,16.03,13.57,3.2,9.01,1.62,18.98-4.11,26.67-4.18,5.6-10.38,8.86-17.35,9.5-4,.37-8.2.58-11.68-1.14l-3.6-1.78ZM305.02,268.53c11.14-4.64,11.65-27.81,2.68-32.85-3.93-2.21-8.99-2-12.63.51-1.95,1.34-3.26,3.29-3.42,5.64-.5,7.35-.33,14.57.44,21.89.63,6,9.25,6.35,12.94,4.81Z"/>
        <path class="cls-1" d="M450.31,237.18c-.49-4.63-5.11-1.53-5.51-6.06-.1-1.13.31-3.42,1.9-3.54,4.91-.36,9.78-.09,14.7-.12,1.51-.01,2.06,1.55,2.06,2.78l.09,29.51c0,1.87,1.13,3.86,1.88,5.48,2.29,4.91,12.18,3.98,15.33-1.22,1.62-2.67,1.94-5.89,1.86-8.97l-.4-16.37c-.02-.93.49-2.45-.05-3.21-1.47-1.29-6.77-3.49-6.39-5.8.27-1.62,4.57-2.13,6.16-2.26l10.15-.84c1.21-.1,2.35,1.02,3.36,1.55.46,4.28.35,8.35.11,12.67l-.61,11.26c-.24,4.39-.28,8.7.61,12.96s7.42,4.01,8.97,6.17c1.13,1.57-.57,3.75-2.31,4.22-5.34,1.43-16.75,1.73-19.44-4.5-6.36,4.92-14.41,7.04-22.11,5.28-5.76-1.31-9.91-5.74-10.19-11.67-.41-8.94.65-19.3-.2-27.3Z"/>
        <path class="cls-1" d="M398.31,275.35c-4.26-1.8-6.48-5.33-6.5-9.71-.08-14.8,18.45-15.68,28.27-20.26.36-2.04.31-3.97-.27-5.85-1.03-3.33-3.89-5.46-7.42-5.5-2.81-.03-5.85.4-7.87,2.36l-5.47,5.3c-1.8,1.75-4.28,1.36-5.76-.55-3.94-5.08,3.16-9.43,6.92-11.49,10.43-5.68,30.24-5.33,32.6,8.24,1.69,9.73-.71,19.58.92,27.34,1.31,6.22,8.1,2.74,8.88,5.94.45,1.84-1.88,3.49-3.37,4.23-5.48,2.72-14.77,1.4-18.44-3.76-5.45,5.41-15.34,6.74-22.5,3.72ZM419.16,265.34c2.18-2.78.92-9.29.99-12.97-5.4,1.7-16.86,5.05-14.83,12.3.37,1.31,1.29,2.88,3.14,3.47,3.45,1.1,8.24.33,10.7-2.8Z"/>
        <path class="cls-1" d="M365.14,268.69c4.77-.18,8.68-2.01,12.52-4.31.79-.47,2.52.73,2.51,1.61-.04,3.29-2.06,5.77-4.78,7.4-5.9,3.51-12.89,4.29-19.67,3.05-8.61-1.58-15.18-7.51-17.62-15.9-2.02-6.93-1.31-14.17,1.7-20.64,4.33-9.33,13.41-14.34,23.61-13.64,6.81.46,12.57,3.58,15.76,9.74,2.29,4.41,3.02,9.49,1.12,14.36l-28.56.08c-3.15,1.67-.5,8.53.68,10.91,2.39,4.82,7.06,7.56,12.73,7.35ZM368.09,242.94c.26-2.85-.64-5.1-2.22-7.03-2.03-1.95-4.84-2.6-7.61-1.76-3.96,1.2-6.76,4.73-7.11,8.81l16.93-.02Z"/>
        <g>
          <path class="cls-1" d="M592.99,249.54l-6.75,16.75c-3.25,8.07-9.43,22.6-16.25,27.81-4.41,3.37-10.7,3.64-15.45,1.07-2.54-1.38-3.35-3.98-2.84-6.56.67-3.36,3.34-5.06,6.66-4.46l6.96,1.25c4.15.74,7.04-8.22,7.68-11.36-5.8-11.46-8.67-25.48-15.59-36.21-3.93-6.11-6.52-4.66-7.1-7.55-.14-.71.11-2.74.96-2.75,6.99-.1,13.71-.27,20.62.08,1.4.33,1.58,3.25.83,4.09l-3.29,3.66,10.33,25.31c3.95-7.35,6.59-14.65,9-22.14.48-1.5.8-3.1.45-4.48-1.48-.62-2.92-.39-4.26-1.46-1.25-1-.63-4.8,1.39-4.95,5.8-.45,11.59-.14,17.46-.11,1.02.31,1.83,3.03,1.16,3.81-2.11,2.06-4.66,3.42-6.18,6.01-2.28,3.87-4.04,7.85-5.79,12.2Z"/>
          <path class="cls-1" d="M534.17,268.71c6.65.16,8.42-2.8,9.72,1.21.28.87-.22,2.16-1.01,2.87-6.58,5.94-21.87,5.21-25.03-.47-1.09-1.97-2.36-4.3-2.37-6.67l-.12-31.47c-1.37-.51-3.12.38-4.34-.38-.92-.57-.52-2.64-.12-3.61,1.35-3.28,7.95-1.72,10.41-8.88,1.05-3.06,2.84-8.03,6.88-6.43l1.14,12.42c3.71.7,9.44-1.16,12.72.9,1.25.79,1.19,2.26.91,3.61-.86,4.02-10.09,3.22-13.68,2.29-.29,11-2.15,19.14-.16,30.34.48,2.71,2.41,4.22,5.04,4.28Z"/>
        </g>
      </g>
      <g>
        <path class="cls-1" d="M.78,280.03c-.95-.54.17-4.37-.78-4.28v-5.83c.97-.45-.19-5.21.78-5.06l.76.56c-.35,4.68-.33,9.36.05,14.04l-.81.57Z"/>
        <polygon class="cls-1" points="121.77 0 121.77 .39 120.65 1.08 115.12 1.08 113.99 .39 113.99 0 121.77 0"/>
        <path class="cls-1" d="M43.57,322.42v.39h-5.45v-.39c1.6-1.06,3.85-1.06,5.45,0Z"/>
        <path class="cls-1" d="M113.99.39c2.45-.23,5.33-.22,7.78,0,9.55.85,17.66,6.48,22.31,15.05,10.83,19.95-.21,47.23-10.06,65.75-5.06,9.52-10.3,18.57-16.61,27.32l-15.11,20.95c-.05.33.1.5.43.51,10.86-7.18,35.45-9.83,51.05-2.94,11.49,5.08,19.67,14.75,22.92,26.9,1.67,6.22,2.08,12.26,1.97,18.79-.64,37.87-23.99,73.15-49.42,99.63-10.79,11.24-22.42,21.25-35.32,29.97-14.61,9.87-32.81,19.26-50.37,20.11-1.79.09-3.66.09-5.45,0-8.86-.45-17.4-3.65-24.22-9.6-9.52-8.3-12.32-20.97-13.13-32.8.35-5.05-1.06-5.19-.08-10.55.29-1.58,0-3.17.08-4.62.41-6.7,1.13-13.3,1.99-20.2l3.7-29.76c2.32-18.64,4.66-36.91,7.91-55.44,8.07-46.08,23.42-105.3,58.58-138.28,5.94-5.57,12.14-10.28,19.37-13.99S106.45,1.1,113.99.39ZM88.43,108.77c14.97-18.7,31.16-45.26,33.8-69.09.82-7.43-.32-16.93-9.45-17.85-4.83-.49-9.43.88-13.49,3.52-11.09,7.22-21.21,22.48-27.2,34.3-14.94,29.45-22.34,63.25-26.96,95.99l15.81-15.85c9.64-10.01,18.75-19.96,27.49-31.02ZM104.48,262.66c10.31-9.51,19.03-20.23,26.66-32.02,10.39-16.04,17.48-37.24,16.05-56.42-1.03-13.82-7.65-27.42-23.11-28.37-11.33-.7-23.53,5.08-33.06,10.93-38.31,23.56-64.04,63.55-62.43,109.36.38,10.75,3.47,22.38,15.62,24.57,6.01,1.08,12.17.57,18.01-1.35,14.01-4.59,31.42-16.71,42.26-26.71Z"/>
        <path class="cls-1" d="M102.74,129.96l-1.13.75c-.41-.87.44-.9.7-1.25.13.18.28.35.43.51Z"/>
      </g>
    </g>
  </g>
</svg>