<?xml version="1.0" encoding="UTF-8"?>
<svg id="Layer_2" data-name="Layer 2" xmlns="http://www.w3.org/2000/svg" viewBox="0 0 928.15 336.69">
  <defs>
    <style>
      .cls-1 {
        fill: #fff;
      }
    </style>
  </defs>
  <g id="Layer_1-2" data-name="Layer 1">
    <g>
      <g>
        <path class="cls-1" d="M851.81,283.15c-4.02-4.37.69-8.95-1.3-11.57-7.35,4.97-21.99,16.9-29.33,12.46-8.22-4.97,1.62-18.25,6.88-23.5,10.11-10.09,18.69-16.4,28.06-26.5-1.77-1-4.46-1.55-5.82-.84-15.45,8.09-29.56,17.41-42.4,29.23-8.73,8.03-12.76,15.5-21.04,23.15-3.82-4.39-.37-6.57,1.18-12.52-7.25,3.36-20.42,15.39-28.15,11.21-5.55-3-1.54-10.74-3.38-10.31-5.59,1.32-11.71,9.51-22.37,11.45-1.58-.68-4.3-2.06-5.91-2.95-2.13-14.09,4.65-18.13,7.46-30.24-15.71,10.77-23.62,18.22-33.36,32.69-8.67-2.39,2.13-11.12,1.01-15.01-6.18,4.44-22.39,18.47-29.63,13.65-7.12-4.74.66-17.15,5.77-22.55s11.1-10.72,17.02-15.79c3.74-3.2,6.54-5.98,9.25-10.53l-7.56-4.24c-11.27,11.16-21.08,22.75-34.97,32.21,2.04-7.56,9.79-10.83,14.88-16.11,6.33-6.56,13.95-12.21,18.94-19.79,5.26-7.99,11.62-15.72,22.48-13.53-2.33,6.01-9.3,5.2-17.68,13.73-2.32,2.36,6.54,3.47,8.79,7.76,2.84,5.41-10.93,19.96-16.05,24.4-4.97,4.31-17.62,15.28-18.19,20.87-.38,3.71,11.18-1.14,16.41-5.7,7.01-6.12,15.1-10.77,21.43-17.6,18.73-20.24,37.79-39.14,59.47-56.35,6.97-5.53,23.17-17.6,32.58-14.61-6.25,3.83-11.86,7.08-17.53,11.59-16.07,12.8-31.05,25.92-45.68,40.33-5.57,5.48-11.78,9.72-15.12,17.25,60.25-48.11,56.53-15.44,51.43-17.34-5.37-1.99-9.35-4.16-14.91-2.36-17.58,5.67-19.05,13.63-25.26,30.59-1.72,4.69-2.89,8.95-1.18,14.16,10.1-2.09,24.24-15.35,30.93-22.45,4.49-4.77,31.33-33.17,38.52-26.62-13.74,13.51-27.12,26.18-39.64,40.45-2.3,2.62-3.94,6.03-3.88,9.7,7.53,3.19,33.84-20.76,39.2-26.35,6.46-6.74,24.78-28.8,33.98-23.45-4.54,5.22-10.91,7.13-13.21,14.1,8.82-4.14,28.78-21.33,36.87-15.05s-10.05,21.27-15.57,26.56c-2.56,2.45-23.79,21.53-19.82,23.75.83.46,3.25.84,4.22.44,31.27-13.04,33.34-40.33,76.26-52.94,1.94-.57,6.31.41,7.2,1.96.83,1.44.38,3.48.18,7.91l9.71-6.67c1.17-.81,3.76-.6,5.17.64l-33.32,37.4c-28.49,31.98-67.02,68.52-112.79,67.3-14.52-.39-35.72-8.12-34.45-26.3,2.42,1.84,3.53,5.37,4.89,8,6.74,12.96,28.98,17.27,40.78,14.47,12.57-2.99,23.96-7.21,35.14-14.13,19.32-11.96,35.49-27.23,50.57-44.16-7.82.37-5.58,6-21.6,10.65-1.64.48-4.51-.91-5.55-2.04ZM896.09,252.64c1.68-1.67,18.8-18.52,13.7-20.47s-20.04,10.51-24.64,14.48c-10.31,8.89-20.6,18.71-27.7,30.07-.6.97-.42,4.19.55,4.43,7.33,1.84,31.86-22.31,38.09-28.51Z"/>
        <path class="cls-1" d="M499.11,247.61c8.69-7.65,33.32-24.75,42.31-17.88,5.49,4.19-1.94,15.51-5.42,20.01-9.63,12.44-21.35,22.73-34.45,31.36-3.15,2.08-6.71,3.41-9.87,1.89,11.97-4.87,49.99-41.37,48.13-50.21-.15-.7-2.03-1.65-2.75-1.41-9.55,3.18-19.12,12.05-27.01,19.42-3.7,3.46-27.37,26.53-21.51,30.78l4.04,2.92c-3.46,1.29-6.71.18-8.23-1.83-1.74-2.31-2.15-5.78-1.91-8.51l.23-2.6c.06-.63-2.01-.27-2.56.14-16.04,11.82-26.33,18.55-45.89,22.39-5.92,1.16-11.34,1.46-17.15-.44-17.01-5.57-11.46-14.99-17.41-13.44-4.04,1.05-6.94.52-10.48-.21-22.1-4.54-26.61-27.27-21.81-46.79,2.65-10.81,7.95-19.86,14.81-28.52,14.26-18,34.39-29.09,56.76-34.23,18.46-4.24,45.11-4.37,63.24,0,6.76,1.63,12.74.29,19.27-1.64,4.47-1.32,9.81-.83,14.6-1.32l7.59-.78,13.45,3.38-24.03.45c-4.78.09-9.13,1.33-13.16,3.69l23.15,6.44c4.64,1.29,17.84,4.53,20.91,1.19,1.03-1.12.84-5.27-.33-6.2l-5.95-4.7c2.39-1.24,9.27,3.7,9.83,8.17.23,1.81-1.29,5.83-3.02,5.79-19.24-.45-10,1.21-26.2-2.53l-10.62-2.45c-5.38-1.24-11.57-2.83-17.15-3.13-25.46,10.26-46.94,25.8-66.21,44.99-13.18,13.13-35.49,38.39-34.16,57.62.86,12.4,14.63,12.59,23.96,11.21,14.94-2.21,27.82-9.43,39.79-18.26,4.54-3.35,9.64-6.35,13.14-10.62,4.02-4.91,7.43-10.06,12.08-14.16ZM394.71,277.99c1.57.44,5.06-.11,6.06-1.35,2.71-3.32-2.09-17.81,20.89-46.41,5.01-6.23,9.86-11.85,15.93-17.05,18.05-15.44,37.25-27.77,60.13-36.56-4.24-2.74-8.94-3.2-13.63-3.17-18.21.12-24.36-.83-42.5,2.74-30.72,6.05-63.06,27.11-70.8,58.81-3.21,13.13-.99,36.02,14.28,40.28l9.64,2.69Z"/>
        <path class="cls-1" d="M548.16,239.64c-.29-11.28,25.49-9.18,33.54-8.79-2.66,4.04-5.62,5.74-9.09,8.34-10.2,7.65-34.29,28.29-39.04,40.7,3.67,8.36,37.76-24.27,41.27-27.68,7.24-7.05,16.82-14.87,25.73-18.72.91-.4,3.76-.05,3.57.56s-.77,2.07-1.29,2.48c-13.93,10.96-26.45,23.76-35.94,38.79-.75,1.18-1.13,4.3-.29,5.08,4.64,4.31,22.46-11.28,26.31-14.9,6.84-6.42,12.79-13.13,18.71-20.35,3.05-3.72,4.08-7.46,5.04-12.57.57-3,7.93-5.69,10.63-2.96,1.53,1.54-.63,6.1-2.24,7.97-12.62,14.64-26.04,27.94-41.39,39.64-5.51,4.2-18.38,11.19-23.12,5.3-3.25-4.04.66-9.21-1.15-12.21-7.56,5.66-12.83,10.67-20.97,13.71-3.81,1.43-10,1.13-10.79-3.87-.88-5.57,2.42-11.57,5.8-16.19,9.73-13.31,22.61-22.45,37.96-29.82-4.38-3.45-18.03,3.05-23.24,5.51Z"/>
        <path class="cls-1" d="M647.91,259.46c3.61-3.64,23.16-23.76,18.73-27.56-6.72-5.76-58.21,42.96-51.07,49.55l3.48,3.21c-4.52,1.97-9.16-1.79-9.34-6.64s1.22-10.23,4.06-14.9c10.63-17.47,28.02-30.21,48.16-35,2.27-.54,5.81,1.04,7.18,2.18,7.16,5.97-10.64,25.51-15.71,30.67-3.73,3.8-28.69,27.37-33.65,21.76,11-6.7,19.44-14.46,28.17-23.27Z"/>
        <circle class="cls-1" cx="816.76" cy="214.21" r="4.89"/>
      </g>
      <g>
        <path class="cls-1" d="M874.07,132.43c-7.23,1.32-13.72,1.39-20.43-.25-14.09-3.45-17.53-13.77-17.87-27.57l-.49-20c-.23-9.63-.94-16.88-9.68-18.84-3.73-.84-9.66-2.68-12.52.99l-.08,59.72c7.65,2.99,6-.78,12.01,2.68.57.33-1.7,2.31-2.64,2.31l-55.88.02c-.74,0-2.11-1-2.54-1.32s1.17-2.12,1.7-2.17l10.36-.84.02-122.59-9.91-.65c-.64-.04-2.57-1.27-2.17-1.67s1.94-1.56,2.7-1.57l19.28-.28,10.12.02,46.43.68c5.38.08,10.56,1.25,15.57,2.41,17.55,4.06,22.99,21.37,20.11,36.11-3.16,16.14-12.62,20.64-28.58,23.35l6.62,2.54c6.46,2.48,13.16,6.23,15.26,13.71.7,2.48,2.3,6.96,2.35,9.5l.53,27.42c.03,1.47,1.43,3.85,2.25,4.72.96,1.02,4.65,1.04,5.79.08,6.48-5.48,1.61-12.57,8.27-14.39,1.09,3.58-.43,6.98-1.08,10.09-1.8,8.65-6.5,14.15-15.53,15.8ZM839.09,42.83c1.1-8.16,1.27-15.38.07-23.11-1.02-6.59-3.05-11.75-10.23-14.18-4.51-1.52-10.35-1.59-15.89-.93l.03,56.48c13.94,1.5,24.04-3.62,26.02-18.26Z"/>
        <path class="cls-1" d="M109.11,115.8c-12.55,9.98-34.83,15.54-50.72,15.57l-56.27.09c-.99,0-2.52-2.24-2.03-2.47,6.9-3.24,4.67.55,12.13-2.65V4.65S.18,3.55.18,3.55C.02,1.65,2.12.53,4.02.52l20.55-.13,42.57.49c7.6.09,16,1.7,23.15,3.64,35.01,9.5,41.43,39.82,38.04,72.12-1.64,15.68-6.39,28.96-19.21,39.16ZM90.44,76.64c.69-9.49.88-18.42-.13-27.92-1.29-12.11-1.44-26.88-11.24-37.19-6.16-6.48-20.16-7.7-30.14-7.37l-.03,122.89c3.35.78,6.88.18,10.47.04,20.76-.77,28.74-18.35,30.05-36.41l1.02-14.03Z"/>
        <path class="cls-1" d="M495.5,82.9c-2.96-9.11-9.95-13.81-18.52-15.33-2.11-.37-4.64-1.04-6.91.44l-.08,57.81c17.79,3.78,34.4-3.92,44.45-18.92,2.98-4.45,5.48-10.08,7.65-15.25.44-1.04,4.01-1.22,4.02-.11.07,9.5.44,18.66-.42,27.57l-1.19,12.32-99.12.07c-.78,0-2.57-.97-3.1-1.39-.67-.53,1.44-2.96,2.35-3.1,1.82-.28,5.46-.6,8.37-.89V5.03s-8.42-.83-8.42-.83c-.46-.05-1.92-.87-2.34-1.08-.58-.29,1.48-2.43,2.37-2.44l28.29-.15,25.37-.15,10.76.05,29.62.25c1.82,10.55,2.9,25.4,2.51,36.57-5.18,3.45-6.41-13.68-18.38-24.26-8.88-7.84-20.96-9.26-32.72-8.19v56.61c4.22.31,8.95.8,12.31-.47,16.54-6.26,13.62-25.68,19.79-22.71l.06,52.98c0,.78-2.24,2.1-2.67,1.7-.59-.55-1.31-1.65-1.64-2.67l-2.38-7.32Z"/>
        <path class="cls-1" d="M228.93,89.78c-4.72-17.89-10.5-19.58-23.95-23.02-1.17-.3-3.97,1.83-3.97,2.99l.08,56.29c24.38,4.58,43.75-10.99,51.28-32.36l.9-2.56c.26-.74,2.74-.41,3.96-.12l-.26,28.58c-.04,3.79-.96,7.56-1.64,11.85l-100.85.04c-.67-1.5-.9-2.82-.28-3.38,3.81-3.46,6.45.34,9.87-2.69V4.86s-7.88-.48-7.88-.48c-.83-.05-2.29-1.5-2.22-2.29s2.1-1.52,3.01-1.52l21.44-.07,44.52.04,24.26.08c.73,0,2.57.06,2.79.6.29.72.67,2.37.75,3.34l1.02,13.44c.48,6.4.55,12.95.51,19.49-5.93,2.2-7.08-16.81-20.56-26.35-8.7-6.17-19.57-7.43-30.59-6.21l-.1,55.84c10.34,3.62,20.4-1.82,24.99-11.42,3.48-7.28,3.16-12.55,7.22-11.3l.03,53.33c0,.74-1.99,1.85-2.38,1.43-.54-.58-1.72-2.22-1.93-3.02Z"/>
        <path class="cls-1" d="M629.62,131.4l-59.57-112.33c-1.31-2.46-2.12-4.4-5.01-4.38l.07,110.74c4.45,4.4,3.46.15,10.81,3.86.56.28-1.76,2.09-2.47,2.1l-20.41.18c-.76,0-2.55-.94-2.9-1.57-1.7-3.08,8.23-1.86,9.89-3.05V4.4s-7.79-.43-7.79-.43c-.44-.02-1.73-.56-2.11-.69s.51-2.28.91-2.33c2.75-.36,7.99-.64,11.33-.61l39.62.38,48.36,91.99.78-87.34c-1.86-.82-4.54-1.22-6.96-1.46l-2.65-.27c-.67-.07-.17-2.04.2-2.99l21.8-.09c.36,0,1.82.85,2.11,1.05.43.3-.24,2.16-.76,2.19l-8.87.54-.05,126.73-26.34.31Z"/>
        <path class="cls-1" d="M379.18.24l22.07.34c1.12.02,2.8,1.74,2.66,2.96l-9.06.88-44.77,128.16c-5.59,1.46-10.59,1.5-16.24.18L287.61,7.39c-1.62-4.39-2.94-2.39-9.49-4.19-.75-.21,1.57-2.59,2.55-2.59l22.62-.09,22.83.04c4.58,0,9.72-2.39,13.8,2.75l-13.78,1.6,30.83,91.03,22.92-64.43,9.3-27-13.05-.61c-.84-.04-1.38-3.14-.63-3.39s2.08-.28,3.67-.25Z"/>
        <path class="cls-1" d="M743.99,131.47l-54.2-.02.06-2.63c.05-2.24,7.75.04,9.3-2.46l-.02-121.72-8.83-.84c-.54-.05-1.23-2-.75-2.25s2.11-.94,2.64-.95l24.08-.13,28.87.17,1.17,1.26c.27.29-1.02,1.81-1.38,1.85l-8.88.99.04,120.54c4.78,5.16,4.32-.37,10.42,4.36.6.47-1.75,1.83-2.52,1.83Z"/>
      </g>
    </g>
  </g>
</svg>